<svg xmlns="http://www.w3.org/2000/svg" xmlns:xlink="http://www.w3.org/1999/xlink" id="Calque_1" x="0px" y="0px" viewBox="0 0 249.8442383 52.502018" xml:space="preserve"><g>	<g>		<path fill="#12F0B9" d="M22.7488556,36.7132759c0.132246,0.5440063,0.1575623,1.1298447,0.0408211,1.7367287   c-0.3251743,1.6904297-1.7192993,3.0126457-3.4260178,3.2371635c-2.5975666,0.3417015-4.7968521-1.7806931-4.5860586-4.3554115   c0.1622334-1.9815712,1.7860765-3.5729446,3.7701845-3.7004547c0.745121-0.0478859,1.449707,0.1070328,2.065855,0.4132271   l7.9260807-6.342041c1.3949451-1.1161652,1.1426296-3.3068695-0.4695377-4.076685l-9.5200539-4.5458679   c-1.1629753,1.2566147-2.8769684,1.9962101-4.7545614,1.8275394c-2.7889013-0.250536-5.0209351-2.531395-5.2157021-5.3247442   c-0.2343102-3.3604908,2.4334154-6.1697884,5.744875-6.1697884c3.1755247,0,5.7590513,2.5835247,5.7590513,5.7591333   c0,0.2799387-0.021122,0.5549536-0.0599098,0.8243265l8.0726547,3.8547373   c1.6074276,0.7675533,3.4655952-0.4043026,3.4655952-2.1855831V2.4219677C31.5621319,1.0843519,30.4777794,0,29.1401653,0   H12.1534576C5.441288,0,0,5.441288,0,12.1534576v28.1950912C0,47.0607262,5.4412928,52.502018,12.1534681,52.502018h16.9866982   c1.3376141,0,2.4219666-1.0843506,2.4219666-2.4219666V34.7010918c0-2.0309448-2.3493633-3.1599674-3.9351406-1.8910942   L22.7488556,36.7132759z"/>		<path fill="#12F0B9" d="M11.9831896,15.1720753c0,1.2911358,1.050415,2.3415508,2.3415508,2.3415508   c1.2910538,0,2.3413858-1.050415,2.3413858-2.3415508c0-1.2910528-1.0503321-2.3414679-2.3413858-2.3414679   C13.0336046,12.8306074,11.9831896,13.8810225,11.9831896,15.1720753z"/>	</g>	<g>		<path fill="#00003F" d="M48.9916992,24.5004673h7.71875v3.6796875h-7.71875v3.0166016h8.8183594v3.7568378H44.6723633V17.5737095   h13.1376953v3.7568359h-8.8183594V24.5004673z"/>		<path fill="#00003F" d="M77.2114258,26.8520298c0,5.39258-3.1181641,8.4853535-8.1015625,8.4853535   c-4.9580078,0-8.0761719-3.0927734-8.0761719-8.4853535v-9.2783203h4.3447266v9.3544922   c0,2.6582031,1.4570312,4.3701172,3.7314453,4.3701172s3.7568359-1.7119141,3.7568359-4.3701172v-9.3544922h4.3447266V26.8520298z   "/>		<path fill="#00003F" d="M100.0649414,34.9535942h-4.3193359V26.237772l-3.859375,5.95508v0.0263672h-2.4023438V32.192852   l-3.8847656-6.0058613l0.0253906,8.7666035h-4.3193359V17.5737095h3.2207031l6.1591797,9.2783203l6.1601562-9.2783203h3.2197266   V34.9535942z"/>		<path fill="#00003F" d="M117.4243164,34.9535942h-4.140625v-0.6904297   c-0.9199219,0.5878906-2.0195312,0.9462891-3.3994141,0.9462891c-3.3476562,0-6.1591797-2.7861328-6.1591797-6.4667988   c0-3.7060547,2.8115234-6.4658203,6.1591797-6.4658203c1.3798828,0,2.4794922,0.3574219,3.3994141,0.9453125v-0.6640625h4.140625   V34.9535942z M113.2836914,30.659647v-3.859375c-0.7919922-0.8691406-1.6611328-1.1503906-2.5556641-1.1503906   c-1.6875,0-2.9394531,1.3808594-2.9394531,3.0927734c0,1.7128906,1.2519531,3.0673828,2.9394531,3.0673828   C111.6225586,31.8100376,112.4916992,31.5541782,113.2836914,30.659647z"/>		<path fill="#00003F" d="M124.3549805,30.7104282c0.1787109,1.0742188,1.0732422,1.5595722,2.3505859,1.5595722   c1.0996094,0,1.7890625-0.3320332,1.7890625-0.8691425c0-0.4091797-0.3828125-0.7412109-1.2011719-0.8691406l-2.5048828-0.4345703   c-2.1464844-0.3574219-3.6542969-1.5585938-3.6542969-3.7314453c0-2.6064453,2.2490234-4.140625,5.5458984-4.140625   c2.6328125,0,5.5976562,1.0224609,5.8017578,4.2939453h-3.7060547c-0.0761719-0.9453125-0.9453125-1.3798828-2.0957031-1.3798828   c-1.0478516,0-1.5585938,0.4091797-1.5585938,0.8945312c0,0.4091797,0.3066406,0.7919922,1.3027344,0.9716797l2.3007812,0.3828125   c2.3261719,0.4345703,3.8847656,1.5595703,3.8847656,3.7568359c0,2.8632832-2.5810547,4.1923847-5.8271484,4.1923847   c-3.2207031,0-5.8535156-1.3554688-6.1083984-4.6523457L124.3549805,30.7104282z"/>		<path fill="#00003F" d="M146.0561523,34.7231255c-1.6103516,0.5117188-2.5302734,0.6142578-3.7568359,0.6142578   c-2.9902344,0-4.9833984-2.1982422-4.9833984-5.5468769v-3.6796875h-2.4287109v-3.5527344h2.4287109v-4.2177734h4.1396484   v4.2177734h4.2177734v3.5527344h-4.2177734v3.5517578c0,1.2529297,0.7158203,1.8662109,1.9423828,1.8662109   c0.5878906,0,1.2783203-0.1279297,2.1982422-0.3066406L146.0561523,34.7231255z"/>		<path fill="#00003F" d="M161.2915039,29.9692173h-8.8173828c0.3320312,1.125,1.2011719,1.9941406,2.7861328,1.9941406   c0.8681641,0,1.5332031-0.3320312,1.890625-0.8945312h4.1152344c-0.6132812,2.555666-2.9902344,4.1660175-6.0576172,4.1660175   c-4.0634766,0-6.7724609-2.7089844-6.7724609-6.4921894c0-3.7568359,2.6318359-6.4658203,6.6191406-6.4658203   c3.578125,0,6.3134766,2.4785156,6.3134766,6.2109375C161.3686523,28.9731236,161.3686523,29.4838657,161.2915039,29.9692173z    M152.4487305,27.5414829h5.0351562c-0.2304688-1.3544922-1.125-2.0703125-2.4541016-2.0703125   C153.6245117,25.4711704,152.7553711,26.2895298,152.4487305,27.5414829z"/>		<path fill="#00003F" d="M173.1293945,26.2895298c-2.0185547,0.0761719-3.296875,0.6132812-4.2685547,1.5585938v7.1054707   h-4.1660156V22.5580845h4.1660156v1.3291016c1.0996094-0.9462891,2.4287109-1.5341797,4.2685547-1.5341797V26.2895298z"/>		<path fill="#00003F" d="M188.7729492,31.8862095v3.0673847h-4.0634766v-3.0673847h-8.8427734v-2.6835938l4.7275391-11.6289062   h4.140625l-4.0888672,10.7089844h4.0634766V23.503397h4.0634766v4.7792969h2.1728516v3.6035156H188.7729492z"/>		<path fill="#00003F" d="M210.3227539,34.9535942h-4.2939453v-6.51758h-7.0800781v6.51758h-4.3193359V17.5737095h4.3193359   v6.9775391h7.0800781v-6.9775391h4.2939453V34.9535942z"/>		<path fill="#00003F" d="M221.6743164,17.5737095c4.5498047,0,7.3613281,2.4541016,7.3613281,6.3642578   c0,4.0634766-2.9648438,6.59375-7.6933594,6.59375h-2.3515625v4.4218769h-4.3193359V17.5737095H221.6743164z    M221.5981445,26.7494907c1.8916016,0,3.1435547-1.0996094,3.1435547-2.8115234   c0-1.5595703-1.2519531-2.5556641-3.1435547-2.5556641h-2.6074219v5.3671875H221.5981445z"/>		<path fill="#00003F" d="M245.3969727,27.7465611h4.4472656c-0.5625,4.4980488-3.9873047,7.564455-8.7158203,7.564455   c-5.2392578,0-9.2001953-3.8076191-9.2001953-9.0468769c0-5.2402344,3.9609375-9.0478516,9.2001953-9.0478516   c4.7285156,0,8.1533203,3.0664062,8.7158203,7.5654297h-4.4472656c-0.4599609-2.1728516-1.9931641-3.5273438-4.2939453-3.5273438   c-2.8369141,0-4.8046875,2.1210938-4.8046875,5.0097656c0,2.8876953,1.9677734,5.0087891,4.8046875,5.0087891   C243.4038086,31.2729282,244.9370117,29.9184361,245.3969727,27.7465611z"/>	</g></g></svg>